<svg width="16" height="16" viewBox="0 0 16 16" fill="none" xmlns="http://www.w3.org/2000/svg">
<g clip-path="url(#clip0_462_178)">
<path d="M14 1.33337V14.6667H12.6667V10H10V5.33337C10 4.27251 10.4214 3.25509 11.1716 2.50495C11.9217 1.7548 12.9391 1.33337 14 1.33337ZM12.6667 3.02004C12.1133 3.33337 11.3333 4.11337 11.3333 5.33337V8.66671H12.6667V3.02004ZM6 9.26671V14.6667H4.66667V9.26671C3.91387 9.11279 3.23733 8.70362 2.75143 8.1084C2.26553 7.51317 2.00009 6.76841 2 6.00004V2.00004H3.33333V6.66671H4.66667V2.00004H6V6.66671H7.33333V2.00004H8.66667V6.00004C8.66657 6.76841 8.40114 7.51317 7.91524 8.1084C7.42934 8.70362 6.75279 9.11279 6 9.26671Z" fill="currentColor"/>
</g>
<defs>
<clipPath id="clip0_462_178">
<rect width="16" height="16" fill="white"/>
</clipPath>
</defs>
</svg>
