<svg width="16" height="16" viewBox="0 0 16 16" fill="none" xmlns="http://www.w3.org/2000/svg">
<g clip-path="url(#clip0_462_167)">
<path d="M4.33333 1.33337H11.6667C11.7702 1.33337 11.8722 1.35747 11.9648 1.40376C12.0574 1.45004 12.1379 1.51724 12.2 1.60004L14 4.00004V14C14 14.1769 13.9298 14.3464 13.8047 14.4714C13.6797 14.5965 13.5101 14.6667 13.3333 14.6667H2.66667C2.48986 14.6667 2.32029 14.5965 2.19526 14.4714C2.07024 14.3464 2 14.1769 2 14V4.00004L3.8 1.60004C3.8621 1.51724 3.94262 1.45004 4.03519 1.40376C4.12776 1.35747 4.22984 1.33337 4.33333 1.33337ZM12.6667 5.33337H3.33333V13.3334H12.6667V5.33337ZM12.3333 4.00004L11.3333 2.66671H4.66667L3.66667 4.00004H12.3333ZM6 6.66671V8.00004C6 8.53047 6.21071 9.03918 6.58579 9.41426C6.96086 9.78933 7.46957 10 8 10C8.53043 10 9.03914 9.78933 9.41421 9.41426C9.78929 9.03918 10 8.53047 10 8.00004V6.66671H11.3333V8.00004C11.3333 8.8841 10.9821 9.73194 10.357 10.3571C9.7319 10.9822 8.88406 11.3334 8 11.3334C7.11595 11.3334 6.2681 10.9822 5.64298 10.3571C5.01786 9.73194 4.66667 8.8841 4.66667 8.00004V6.66671H6Z" fill="currentColor"/>
</g>
<defs>
<clipPath id="clip0_462_167">
<rect width="16" height="16" fill="white"/>
</clipPath>
</defs>
</svg>
